<svg width="128" height="128" viewBox="0 0 128 128" fill="none" xmlns="http://www.w3.org/2000/svg">
<path d="M65.1608 24C67.8445 24 70.1909 25.8096 70.8727 28.4053L79.0836 59.6719C79.5656 61.5072 81.1005 62.9932 82.9981 62.9932H84.277C85.5752 62.9932 86.6329 61.9982 87.0094 60.7559L93.2389 40.1992C93.7419 38.5393 95.272 37.4034 97.0065 37.4033C98.7956 37.4033 100.36 38.6103 100.814 40.3408L106.289 61.1846C106.554 62.1955 107.41 62.9932 108.456 62.9932H112.204C112.784 62.9932 113.268 62.5682 113.436 62.0127L117.401 48.9307C117.721 47.8744 118.695 47.1523 119.798 47.1523C120.937 47.1524 121.932 47.9196 122.221 49.0205L125.705 62.2852C126.036 63.5477 126.036 64.8752 125.705 66.1377L122.221 79.4014C121.932 80.5025 120.937 81.2704 119.798 81.2705C118.695 81.2705 117.721 80.5484 117.401 79.4922L114.661 70.4503C114.049 68.4337 112.19 67.0547 110.083 67.0547H106.523C106.412 67.0547 106.317 67.1309 106.289 67.2383L100.814 88.082C100.36 89.8125 98.7956 91.0186 97.0065 91.0186C95.272 91.0185 93.7419 89.8836 93.2389 88.2236L87.0094 67.667C86.9013 67.3104 86.5814 67.0547 86.2089 67.0547H81.1764C80.1769 67.0547 79.3375 67.7842 79.0836 68.751L70.8727 100.018C70.1909 102.613 67.8444 104.423 65.1608 104.423C62.5589 104.423 60.2639 102.719 59.5094 100.229L50.1647 69.3945C49.7631 68.0693 48.6086 67.0547 47.2238 67.0547H42.3468C42.2358 67.0547 42.1411 67.1309 42.1129 67.2383L36.6393 88.082C36.1848 89.8124 34.6206 91.0184 32.8316 91.0186C31.0971 91.0186 29.5661 89.8836 29.0631 88.2236L22.8336 67.667C22.7256 67.3106 22.4068 67.0547 22.0343 67.0547H18.9811C16.8434 67.0547 14.9746 68.4961 14.4317 70.5637L12.1109 79.4014C11.8218 80.5025 10.8266 81.2704 9.68809 81.2705C8.5844 81.2705 7.61084 80.5484 7.29063 79.4922L3.32579 66.4102C2.89139 64.9766 2.89141 63.4463 3.32579 62.0127L7.29063 48.9307C7.6108 47.8744 8.58436 47.1523 9.68809 47.1523C10.8264 47.1524 11.8216 47.9196 12.1109 49.0205L15.5943 62.2852C15.7004 62.6889 16.0514 62.9932 16.4688 62.9932H20.1013C21.3994 62.9932 22.4571 61.9982 22.8336 60.7559L29.0631 40.1992C29.5661 38.5392 31.0971 37.4033 32.8316 37.4033C34.6206 37.4035 36.1848 38.6105 36.6393 40.3408L42.1129 61.1846C42.3784 62.1955 43.2346 62.9932 44.2798 62.9932H45.8799C47.8842 62.9932 49.5029 61.4217 50.032 59.4886C50.0741 59.3347 50.1183 59.1813 50.1647 59.0283L59.5094 28.1924C60.2641 25.7026 62.5591 24 65.1608 24Z" fill="white"/>
</svg>
