<svg width="1024" height="1024" viewBox="0 0 1024 1024" fill="none" xmlns="http://www.w3.org/2000/svg">
<path d="M72 261.062C72 156.646 156.646 72 261.062 72H762.938C867.354 72 952 156.646 952 261.062V762.938C952 867.354 867.354 952 762.938 952H261.062C156.646 952 72 867.354 72 762.938V261.062Z" fill="url(#paint0_linear_2404_1183)"/>
<path d="M762.938 933.094V952H261.062V933.094H762.938ZM933.094 762.938V261.062C933.094 167.088 856.912 90.9062 762.938 90.9062H261.062C167.088 90.9062 90.9062 167.088 90.9062 261.062V762.938C90.9062 856.912 167.088 933.094 261.062 933.094V952L259.84 951.996C155.986 951.338 72 866.946 72 762.938V261.062C72 157.054 155.986 72.6619 259.84 72.0042L261.062 72H762.938C867.354 72 952 156.646 952 261.062V762.938C952 867.354 867.354 952 762.938 952V933.094C856.912 933.094 933.094 856.912 933.094 762.938Z" fill="url(#paint1_linear_2404_1183)" fill-opacity="0.16"/>
<path d="M515.984 278C531.612 278 545.276 288.508 549.246 303.581L597.061 485.14C599.868 495.797 608.806 504.426 619.856 504.426H627.304C634.864 504.426 641.023 498.648 643.216 491.434L679.492 372.066C682.421 362.427 691.332 355.831 701.432 355.831C711.851 355.831 720.959 362.839 723.605 372.888L755.486 493.924C757.032 499.794 762.018 504.426 768.104 504.426H789.931C793.311 504.426 796.128 501.958 797.108 498.732L820.196 422.768C822.061 416.634 827.73 412.441 834.158 412.441C840.787 412.442 846.582 416.896 848.267 423.289L868.552 500.315C870.483 507.646 870.483 515.354 868.552 522.685L848.267 599.705C846.583 606.099 840.787 610.558 834.158 610.559C827.731 610.559 822.061 606.366 820.196 600.232L804.238 547.728C800.679 536.018 789.854 528.01 777.583 528.01H756.848C756.202 528.01 755.65 528.453 755.486 529.076L723.605 650.112C720.958 660.16 711.851 667.164 701.432 667.164C691.332 667.163 682.421 660.573 679.492 650.934L643.216 531.566C642.586 529.495 640.724 528.01 638.554 528.01H609.248C603.427 528.01 598.54 532.246 597.061 537.86L549.246 719.419C545.276 734.492 531.612 745 515.984 745C500.832 745 487.468 735.109 483.074 720.65L428.656 541.597C426.318 533.902 419.594 528.01 411.531 528.01H383.13C382.484 528.01 381.932 528.453 381.768 529.076L349.893 650.112C347.247 660.16 338.138 667.163 327.72 667.164C317.619 667.164 308.704 660.574 305.774 650.934L269.498 531.566C268.869 529.496 267.012 528.01 264.843 528.01H247.063C234.615 528.01 223.732 536.38 220.571 548.386L207.056 599.705C205.372 606.099 199.577 610.558 192.947 610.559C186.52 610.559 180.851 606.366 178.986 600.232L155.897 524.268C153.368 515.943 153.368 507.057 155.897 498.732L178.986 422.768C180.85 416.634 186.52 412.441 192.947 412.441C199.576 412.442 205.371 416.896 207.056 423.289L227.341 500.315C227.959 502.659 230.003 504.426 232.434 504.426H253.587C261.146 504.426 267.306 498.648 269.498 491.434L305.774 372.066C308.704 362.426 317.619 355.831 327.72 355.831C338.138 355.832 347.247 362.84 349.893 372.888L381.768 493.924C383.314 499.794 388.3 504.426 394.387 504.426H403.705C415.376 504.426 424.802 495.301 427.883 484.075C428.129 483.182 428.386 482.291 428.656 481.403L483.074 302.344C487.469 287.887 500.833 278 515.984 278Z" fill="url(#paint2_linear_2404_1183)"/>
<defs>
<linearGradient id="paint0_linear_2404_1183" x1="512" y1="-46.1641" x2="512" y2="1470.2" gradientUnits="userSpaceOnUse">
<stop stop-color="#4000D5"/>
<stop offset="1" stop-color="#001422"/>
</linearGradient>
<linearGradient id="paint1_linear_2404_1183" x1="512" y1="72" x2="512" y2="952" gradientUnits="userSpaceOnUse">
<stop stop-color="#F5F1FF" stop-opacity="0.4"/>
<stop offset="1" stop-color="#0C002C" stop-opacity="0.76"/>
</linearGradient>
<linearGradient id="paint2_linear_2404_1183" x1="512" y1="278" x2="512" y2="745" gradientUnits="userSpaceOnUse">
<stop stop-color="white"/>
<stop offset="1" stop-color="#C6C0FF"/>
</linearGradient>
</defs>
</svg>
